HIERARCHY
ROOT reference
{
  OFFSET 0 0 0
  CHANNELS 6 Xposition Yposition Zposition Zrotation Xrotation Yrotation
  JOINT Hips
  {
    OFFSET 96.5545 86.3089 -102.711
    CHANNELS 6 Xposition Yposition Zposition Zrotation Xrotation Yrotation
    JOINT Spine
    {
      OFFSET 0 8.12958 0
      CHANNELS 6 Xposition Yposition Zposition Zrotation Xrotation Yrotation
      JOINT Spine1
      {
        OFFSET 0 26.3907 0
        CHANNELS 6 Xposition Yposition Zposition Zrotation Xrotation Yrotation
        JOINT Neck
        {
          OFFSET 0 26.2823 2.3893
          CHANNELS 6 Xposition Yposition Zposition Zrotation Xrotation Yrotation
          JOINT Head
          {
            OFFSET 0 13.8798 -1.98282
            CHANNELS 6 Xposition Yposition Zposition Zrotation Xrotation Yrotation
            End Site
            {
              OFFSET 0 24.7853 0
            }
          }
        }
        JOINT LeftShoulder
        {
          OFFSET 3.97789 23.5745 -0.27352
          CHANNELS 6 Xposition Yposition Zposition Zrotation Xrotation Yrotation
          JOINT LeftArm
          {
            OFFSET 13.7626 0 0
            CHANNELS 6 Xposition Yposition Zposition Zrotation Xrotation Yrotation
            JOINT LeftForeArm
            {
              OFFSET 26.1014 0 0
              CHANNELS 6 Xposition Yposition Zposition Zrotation Xrotation Yrotation
              JOINT LeftHand
              {
                OFFSET 29.9599 0 0
                CHANNELS 6 Xposition Yposition Zposition Zrotation Xrotation Yrotation
                End Site
                {
                  OFFSET 14.8712 0 0
                }
              }
            }
          }
        }
        JOINT RightShoulder
        {
          OFFSET -3.9517 23.5745 -0.27352
          CHANNELS 6 Xposition Yposition Zposition Zrotation Xrotation Yrotation
          JOINT RightArm
          {
            OFFSET -13.7626 0 0
            CHANNELS 6 Xposition Yposition Zposition Zrotation Xrotation Yrotation
            JOINT RightForeArm
            {
              OFFSET -26.1014 0 0
              CHANNELS 6 Xposition Yposition Zposition Zrotation Xrotation Yrotation
              JOINT RightHand
              {
                OFFSET -29.9599 0 0
                CHANNELS 6 Xposition Yposition Zposition Zrotation Xrotation Yrotation
                End Site
                {
                  OFFSET -14.8712 0 0
                }
              }
            }
          }
        }
      }
    }
    JOINT LeftUpLeg
    {
      OFFSET 9.91412 0 0
      CHANNELS 6 Xposition Yposition Zposition Zrotation Xrotation Yrotation
      JOINT LeftLeg
      {
        OFFSET 0 -41.4279 0
        CHANNELS 6 Xposition Yposition Zposition Zrotation Xrotation Yrotation
        JOINT LeftFoot
        {
          OFFSET 0 -41.0254 0
          CHANNELS 6 Xposition Yposition Zposition Zrotation Xrotation Yrotation
          JOINT LeftToeBase
          {
            OFFSET 0 -6.44418 14.8712
            CHANNELS 6 Xposition Yposition Zposition Zrotation Xrotation Yrotation
            End Site
            {
              OFFSET 0 0 3.96565
            }
          }
        }
      }
    }
    JOINT RightUpLeg
    {
      OFFSET -9.91412 0 0
      CHANNELS 6 Xposition Yposition Zposition Zrotation Xrotation Yrotation
      JOINT RightLeg
      {
        OFFSET 0 -41.4279 0
        CHANNELS 6 Xposition Yposition Zposition Zrotation Xrotation Yrotation
        JOINT RightFoot
        {
          OFFSET 0 -41.0254 0
          CHANNELS 6 Xposition Yposition Zposition Zrotation Xrotation Yrotation
          JOINT RightToeBase
          {
            OFFSET 0 -6.44418 14.8712
            CHANNELS 6 Xposition Yposition Zposition Zrotation Xrotation Yrotation
            End Site
            {
              OFFSET 0 0 3.96565
            }
          }
        }
      }
    }
  }
}
MOTION
Frames:	6
Frame Time:	0.004
0 0 0 0 0 -0 -130.312 87.2303 -77.4806 -1.43856 -3.67679 -1.34789 0 8.12958 0 0.950459 0.547938 0.176657 2.84217e-014 26.3907 -1.42109e-014 -0.331394 -3.40647 0.175193 0 26.2823 2.3893 5.13138 15.9431 2.7692 0 13.8798 -1.98282 -5.22347 -2.25333 2.02044 3.97789 23.5745 -0.27352 7.96067 3.84991 -0.868578 13.7626 2.84217e-014 0 -16.8098 2.00058 -0.0429986 26.1014 -1.42109e-014 0 -2.04634 4.93513 -0.937004 29.9599 1.42109e-014 0 14.089 5.18098 2.13354 -3.9517 23.5745 -0.27352 -5.99659 4.08832 4.21375 -13.7626 0 0 12.2336 -1.40646 -1.7155 -26.1014 0 0 -0.115823 0.781261 -0.33523 -29.9599 2.84217e-014 0 -6.46305 0.806645 -0.453844 9.91412 0 1.42109e-014 1.17253 11.8525 -0.313461 0 -41.4279 0 0.692142 -8.68176 6.29187 0 -41.0254 0 2.42938 -2.63791 7.39674 1.42109e-014 -6.44418 14.8712 -4.96962e-016 3.97569e-016 -0 -9.91412 1.42109e-014 0 -0.614223 7.28622 4.80644 0 -41.4279 -2.84217e-014 0.124702 -1.69706 6.49777 1.42109e-014 -41.0254 -1.42109e-014 1.94968 -6.00326 -17.1729 0 -6.44418 14.8712 2.98177e-016 -7.95139e-016 3.18055e-015 
0 0 0 0 0 -0 -130.312 87.2303 -77.4806 -1.43856 -3.67679 -1.34789 0 8.12958 0 0.950428 0.557765 0.176658 0 26.3907 1.42109e-014 -0.331394 -3.40647 0.175193 -2.84217e-014 26.2823 2.3893 5.14218 15.9431 2.7692 2.84217e-014 13.8798 -1.98282 -5.23968 -2.27888 2.02048 3.97789 23.5745 -0.27352 7.96067 3.84991 -0.868578 13.7626 0 0 -16.8012 1.97854 -0.042998 26.1014 2.84217e-014 -1.42109e-014 -2.05026 4.95173 -0.937027 29.9599 0 0 14.0724 5.1967 2.12871 -3.9517 23.5745 -0.27352 -5.99709 4.09507 4.21379 -13.7626 5.68434e-014 0 12.2341 -1.39005 -1.71549 -26.1014 0 0 -0.124807 0.779719 -0.33523 -29.9599 2.84217e-014 0 -6.48125 0.804815 -0.448265 9.91412 0 1.42109e-014 1.17535 11.8525 -0.296306 0 -41.4279 0 0.685584 -8.68247 6.24843 0 -41.0254 1.42109e-014 2.43021 -2.6378 7.41495 1.42109e-014 -6.44418 14.8712 -5.96354e-016 7.95139e-016 -0 -9.91412 1.42109e-014 0 -0.614223 7.28622 4.80644 0 -41.4279 -2.84217e-014 0.126211 -1.70972 6.50003 -4.26326e-014 -41.0254 -1.42109e-014 1.95471 -5.98706 -17.1724 0 -6.44418 14.8712 1.98785e-016 7.95139e-016 4.77083e-015 
0 0 0 0 0 -0 -130.312 87.2303 -77.4806 -1.43856 -3.67679 -1.34789 0 8.12958 0 0.950411 0.563421 0.176658 0 26.3907 0 -0.331394 -3.40647 0.175193 0 26.2823 2.3893 5.14181 15.9353 2.76909 -1.42109e-014 13.8798 -1.98282 -5.23774 -2.30098 2.02051 3.97789 23.5745 -0.27352 7.96067 3.84991 -0.868578 13.7626 -2.84217e-014 1.42109e-014 -16.7838 1.95918 -0.04007 26.1014 -1.42109e-014 0 -2.06171 4.96533 -0.937046 29.9599 -2.84217e-014 1.42109e-014 14.0579 5.20791 2.11229 -3.9517 23.5745 -0.27352 -5.99819 4.1128 4.2109 -13.7626 -2.84217e-014 0 12.2208 -1.44905 -1.70628 -26.1014 0 0 -0.103962 0.81963 -0.335233 -29.9599 -5.68434e-014 -1.42109e-014 -6.50438 0.844595 -0.444052 9.91412 0 1.42109e-014 1.1839 11.8525 -0.293051 -1.42109e-014 -41.4279 -1.42109e-014 0.6747 -8.68585 6.25479 1.42109e-014 -41.0254 0 2.43015 -2.63781 7.41351 1.42109e-014 -6.44418 14.8712 -1.98785e-016 3.97569e-016 -0 -9.91412 1.42109e-014 0 -0.613428 7.27685 4.80634 2.84217e-014 -41.4279 0 0.124831 -1.70169 6.48457 1.42109e-014 -41.0254 -1.42109e-014 1.96129 -5.98556 -17.164 0 -6.44418 14.8712 3.97569e-016 0 -0 
0 0 0 0 0 -0 -130.312 87.2303 -77.4806 -1.43883 -3.67678 -1.35203 0 8.12958 1.42109e-014 0.950415 0.562212 0.176658 -2.84217e-014 26.3907 1.42109e-014 -0.331394 -3.40647 0.175193 0 26.2823 2.3893 5.14762 15.9185 2.76886 -2.84217e-014 13.8798 -1.98282 -5.24173 -2.28071 2.01524 3.97789 23.5745 -0.27352 7.96533 3.84991 -0.868578 13.7626 0 1.42109e-014 -16.7866 1.99786 -0.033446 26.1014 -1.42109e-014 0 -2.05485 4.9471 -0.937021 29.9599 2.84217e-014 0 14.0629 5.18874 2.10209 -3.9517 23.5745 -0.27352 -5.99875 4.10509 4.2266 -13.7626 0 0 12.2214 -1.41952 -1.72736 -26.1014 0 0 -0.111643 0.84098 -0.324012 -29.9599 -2.84217e-014 1.42109e-014 -6.49495 0.865069 -0.429733 9.91412 0 0 1.18711 11.8525 -0.283808 1.42109e-014 -41.4279 0 0.672239 -8.69271 6.24557 0 -41.0254 0 2.43019 -2.63781 7.41452 1.42109e-014 -6.44418 14.8712 6.95746e-016 -3.97569e-016 -0 -9.91412 0 0 -0.612262 7.26309 4.80619 -2.84217e-014 -41.4279 0 0.124591 -1.69635 6.49675 1.42109e-014 -41.0254 0 1.97264 -5.98489 -17.1521 2.84217e-014 -6.44418 14.8712 1.98785e-016 0 3.18055e-015 
0 0 0 0 0 -0 -130.312 87.2303 -77.4834 -1.43934 -3.67722 -1.35983 2.84217e-014 8.12958 0 0.950397 0.567805 0.176658 0 26.3907 1.42109e-014 -0.331411 -3.40092 0.175192 0 26.2823 2.3893 5.1524 15.9153 2.7673 1.42109e-014 13.8798 -1.98282 -5.24529 -2.29098 2.01069 3.97789 23.5745 -0.27352 7.97003 3.84991 -0.868578 13.7626 0 0 -16.77 1.96665 -0.025893 26.1014 0 -1.42109e-014 -2.06581 4.97825 -0.937065 29.9599 -1.42109e-014 0 14.0447 5.22113 2.11602 -3.9517 23.5745 -0.27352 -5.99975 4.11711 4.22818 -13.7626 2.84217e-014 -1.42109e-014 12.2103 -1.47853 -1.71978 -26.1014 -2.84217e-014 0 -0.089287 0.886032 -0.324459 -29.9599 2.84217e-014 0 -6.53132 0.910347 -0.429698 9.91412 1.42109e-014 0 1.18676 11.8548 -0.271585 0 -41.4279 1.42109e-014 0.669106 -8.69536 6.23747 -1.42109e-014 -41.0254 1.42109e-014 2.43252 -2.63778 7.41864 -1.42109e-014 -6.44418 14.8712 2.98177e-016 3.97569e-016 1.59028e-015 -9.91412 0 -1.42109e-014 -0.612034 7.26041 4.80616 -2.84217e-014 -41.4279 0 0.124604 -1.6929 6.51033 0 -41.0254 0 1.96827 -5.98331 -17.1605 0 -6.44418 14.8712 -2.20695e-032 7.95139e-016 1.59028e-015 
0 0 0 0 0 -0 -130.312 87.2303 -77.4866 -1.4396 -3.67781 -1.36365 2.84217e-014 8.12958 0 0.950383 0.572567 0.176658 -2.84217e-014 26.3907 0 -0.331461 -3.38458 0.175189 0 26.2823 2.3893 5.14977 15.9013 2.75959 -1.42109e-014 13.8798 -1.98282 -5.24895 -2.30113 2.00439 3.97789 23.5745 -0.27352 7.97518 3.8599 -0.868589 13.7626 2.84217e-014 0 -16.776 2.01431 -0.027203 26.1014 1.42109e-014 1.42109e-014 -2.04896 4.95153 -0.937027 29.9599 -2.84217e-014 0 14.029 5.19373 2.11165 -3.9517 23.5745 -0.27352 -5.99832 4.12053 4.22461 -13.7626 2.84217e-014 1.42109e-014 12.2114 -1.5008 -1.71414 -26.1014 0 0 -0.100133 0.937015 -0.32382 -29.9599 0 -1.42109e-014 -6.54171 0.960774 -0.420503 9.91412 0 1.42109e-014 1.18681 11.8586 -0.261685 0 -41.4279 1.42109e-014 0.665187 -8.69668 6.22569 0 -41.0254 0 2.43699 -2.63854 7.42937 0 -6.44418 14.8712 2.98177e-016 0 -0 -9.91412 -1.42109e-014 0 -0.612275 7.26325 4.80619 -2.84217e-014 -41.4279 0 0.123785 -1.68994 6.49425 1.42109e-014 -41.0254 0 1.9742 -5.98278 -17.1441 2.84217e-014 -6.44418 14.8712 4.96962e-016 0 -1.59028e-015 
